<svg width="38" height="32" viewBox="0 0 38 32" fill="none" xmlns="http://www.w3.org/2000/svg">
<path d="M35.8059 24.4971C36.2725 24.5748 36.6614 24.2637 36.7392 23.8749L37.4391 20.3753C37.5168 20.142 37.4391 19.9865 37.2835 19.7532C37.128 19.5976 36.9725 19.4421 36.7392 19.4421L35.3393 19.2088C35.2615 18.4311 35.106 17.7312 34.8727 17.0312L36.0392 16.2536C36.4281 16.0202 36.5058 15.4759 36.2725 15.1648L34.2506 12.2096C34.095 12.054 33.9395 11.8985 33.7062 11.8985C33.4729 11.8207 33.3173 11.8985 33.084 12.054L31.9175 12.8317C31.3731 12.3651 30.7509 11.8985 30.051 11.5874L30.2843 10.1876C30.3621 9.72097 30.051 9.33212 29.6622 9.25435L26.1626 8.55443C25.9293 8.47667 25.7737 8.55444 25.5404 8.70997C25.3849 8.86551 25.2294 9.02105 25.2294 9.25435L24.9961 10.6542C24.2184 10.732 23.5184 10.8875 22.8185 11.1208L22.0408 9.95427C21.8853 9.79874 21.7298 9.6432 21.4965 9.6432C21.2631 9.56543 21.1076 9.6432 20.8743 9.79874L17.9191 11.8207C17.7635 11.9763 17.608 12.1318 17.608 12.3651C17.5302 12.5984 17.608 12.754 17.7635 12.9873L18.5412 14.1538C18.0746 14.6982 17.608 15.3203 17.2969 16.0202L15.8971 15.7869C15.6638 15.7092 15.5082 15.7869 15.2749 15.9425C15.1194 16.098 14.9639 16.2536 14.9639 16.4869L14.2639 19.9865C14.1862 20.4531 14.4973 20.8419 14.8861 20.9197L16.2859 21.153C16.3637 21.9307 16.5192 22.6306 16.7526 23.3305L15.586 24.1082C15.4305 24.2637 15.2749 24.4193 15.2749 24.6526C15.1972 24.8859 15.2749 25.0414 15.4305 25.2747L17.4525 28.23C17.608 28.3855 17.7635 28.541 17.9969 28.541C18.2302 28.6188 18.3857 28.541 18.619 28.3855L19.7855 27.6078C20.3299 28.0744 20.9521 28.541 21.652 28.8521L21.4187 30.252C21.3409 30.7186 21.652 31.1074 22.0408 31.1852L25.5404 31.8851C25.6182 31.8851 25.6182 31.8851 25.696 31.8851C26.0848 31.8851 26.3959 31.6518 26.4737 31.2629L26.707 29.8631C27.4847 29.7853 28.1846 29.6298 28.8845 29.3965L29.6622 30.563C29.8177 30.7186 29.9733 30.8741 30.2066 30.8741C30.4399 30.9519 30.5954 30.8741 30.8287 30.7186L33.7839 28.6966C34.1728 28.4633 34.2506 27.9189 34.0172 27.6078L33.2396 26.4413C33.7062 25.8969 34.1728 25.2747 34.4839 24.5748L35.8059 24.4971ZM33.2396 23.0194C32.8507 23.9527 32.3063 24.7304 31.6064 25.508C31.3731 25.8191 31.2953 26.208 31.5286 26.519L32.2286 27.53L30.5954 28.6188L29.8955 27.6078C29.6622 27.2967 29.2733 27.1412 28.9623 27.2967C28.029 27.6856 27.0958 27.8411 26.0848 27.9189C25.696 27.9189 25.3849 28.23 25.3071 28.541L25.0738 29.7076L23.1296 29.3187L23.3629 28.1522C23.4407 27.7633 23.2074 27.3745 22.8963 27.2967C21.9631 26.9079 21.1854 26.3635 20.4077 25.6636C20.0966 25.4303 19.7078 25.3525 19.3967 25.5858L18.3857 26.2857L17.2969 24.6526L18.3079 23.9527C18.619 23.7194 18.7745 23.3305 18.619 23.0194C18.2302 22.0862 18.0746 21.153 17.9969 20.142C17.9969 19.7532 17.6858 19.4421 17.3747 19.3643L16.2082 19.131L16.597 17.1868L17.7635 17.4201C18.1524 17.4979 18.5412 17.2645 18.619 16.9535C19.0079 16.0202 19.5522 15.2426 20.2522 14.4649C20.4855 14.1538 20.5632 13.7649 20.3299 13.4539L19.63 12.4429L21.2631 11.3541L21.9631 12.3651C22.1964 12.6762 22.5852 12.8317 22.8963 12.6762C23.8295 12.2873 24.7627 12.1318 25.7737 12.054C26.1626 12.054 26.4737 11.743 26.5514 11.4319L26.7847 10.2654L28.729 10.6542L28.4957 11.8207C28.4179 12.2096 28.6512 12.5984 28.9623 12.6762C29.8955 13.065 30.6732 13.6094 31.4509 14.3093C31.7619 14.5426 32.1508 14.6204 32.4619 14.3871L33.4729 13.6872L34.5616 15.3203L33.5506 16.0202C33.2396 16.2536 33.084 16.6424 33.2396 16.9535C33.6284 17.8867 33.7839 18.8199 33.8617 19.8309C33.8617 20.2198 34.1728 20.5308 34.4839 20.6086L35.6504 20.8419L35.2615 22.7861L34.1728 22.5528C33.7839 22.4751 33.3951 22.6306 33.2396 23.0194Z" fill="#282828"/>
<path d="M27.0189 14.3098C25.5413 13.9987 23.9859 14.3098 22.7416 15.1653C21.4973 16.0207 20.6419 17.3428 20.3308 18.8204C20.0197 20.298 20.3308 21.8534 21.1863 23.0977C22.0417 24.342 23.3638 25.1974 24.8414 25.5085C25.2302 25.5863 25.5413 25.5863 25.9301 25.5863C28.6521 25.5863 31.0629 23.6421 31.6073 20.9201C32.1517 17.8872 30.1297 14.8542 27.0189 14.3098ZM29.9741 20.6868C29.7408 21.7756 29.1187 22.7088 28.2632 23.331C27.33 23.9531 26.2412 24.1864 25.1525 23.9531C24.0637 23.7198 23.1305 23.0977 22.5083 22.2422C21.8862 21.309 21.6529 20.2202 21.8862 19.1315C22.1195 18.0427 22.7416 17.1095 23.5971 16.4873C24.297 16.0207 25.0747 15.7874 25.9301 15.7874C26.1635 15.7874 26.4745 15.7874 26.7078 15.8652C28.9631 16.3318 30.4407 18.5093 29.9741 20.6868Z" fill="#282828"/>
<path d="M0.34329 11.2765C0.421059 11.5876 0.732135 11.8209 1.04321 11.8209L2.0542 11.6653C2.28751 12.2097 2.59859 12.6763 2.90967 13.1429L2.28751 13.9984C2.20974 14.1539 2.13198 14.3095 2.20974 14.465C2.20974 14.6205 2.28751 14.7761 2.44305 14.8539L4.62058 16.487C4.85389 16.7203 5.24273 16.6425 5.47603 16.3315L6.09819 15.476C6.64257 15.7093 7.18695 15.7871 7.73133 15.8649L7.88687 16.8758C7.88687 17.0314 7.96464 17.1869 8.12018 17.2647C8.19795 17.3425 8.35348 17.4202 8.50902 17.4202H8.58679L11.2309 17.0314C11.542 16.9536 11.7753 16.6425 11.7753 16.3315L11.6198 15.3205C12.1642 15.0872 12.6308 14.7761 13.0974 14.465L13.9528 15.0872C14.1862 15.3205 14.575 15.2427 14.8083 14.9316L16.4414 12.7541C16.6748 12.5208 16.597 12.1319 16.2859 11.8986L15.4305 11.2765C15.6638 10.7321 15.7415 10.1877 15.8193 9.64334L16.8303 9.4878C16.9858 9.4878 17.1414 9.41003 17.2191 9.2545C17.2969 9.09896 17.3747 8.94342 17.2969 8.78788L16.9081 6.14374C16.8303 5.83267 16.5192 5.59936 16.2081 5.59936L15.1971 5.7549C14.9638 5.21051 14.6528 4.7439 14.3417 4.27729L14.9638 3.42183C15.0416 3.26629 15.1194 3.11076 15.0416 2.95522C15.0416 2.79968 14.9638 2.64414 14.8083 2.56637L12.6308 0.933226C12.4752 0.855457 12.3197 0.777689 12.1642 0.855458C12.0086 0.855458 11.8531 0.933226 11.7753 1.08876L11.1532 1.94422C10.6088 1.71092 10.0644 1.63315 9.52002 1.55538L9.36448 0.544382C9.28671 0.233306 8.97563 0 8.66456 0L6.02042 0.388844C5.86488 0.388844 5.70935 0.466613 5.63158 0.622151C5.55381 0.777689 5.47603 0.933226 5.5538 1.08876L5.70934 2.09976C5.16496 2.33307 4.69835 2.64414 4.23173 2.95522L3.37628 2.33307C3.22074 2.2553 3.0652 2.17753 2.90967 2.2553C2.75413 2.2553 2.59859 2.33307 2.52082 2.4886L0.88767 4.66613C0.809901 4.82167 0.732133 4.97721 0.809902 5.13275C0.809902 5.28828 0.887673 5.44382 1.04321 5.52159L1.89867 6.14374C1.66536 6.68812 1.58759 7.23251 1.50982 7.77689L0.498825 7.93243C0.343287 7.93243 0.18775 8.01019 0.109981 8.16573C0.032212 8.32127 -0.0455557 8.47681 0.0322132 8.63235L0.34329 11.2765ZM2.13198 8.86565C2.44305 8.78788 2.59859 8.55458 2.67636 8.32127C2.75413 7.54358 2.90966 6.84366 3.22074 6.14374C3.37627 5.91043 3.29851 5.59936 3.0652 5.44382L2.36528 4.89944L3.29851 3.73291L3.99843 4.27729C4.23173 4.43283 4.54281 4.43283 4.77611 4.27729C5.3205 3.81067 5.94265 3.42183 6.64257 3.11075C6.87587 3.03299 7.10918 2.72191 7.03141 2.4886L6.87588 1.55538L8.35349 1.32207L8.50902 2.2553C8.58679 2.56637 8.8201 2.72191 9.0534 2.79968C9.83109 2.87745 10.531 3.03299 11.2309 3.34406C11.4642 3.4996 11.7753 3.42183 11.9309 3.18852L12.4752 2.4886L13.6418 3.42183L13.0974 4.12175C12.9418 4.35506 12.9418 4.66613 13.0974 4.89944C13.564 5.44382 13.9528 6.06597 14.2639 6.76589C14.3417 6.9992 14.6528 7.23251 14.8861 7.15474L15.8193 6.9992L16.0526 8.47681L15.1194 8.63235C14.8083 8.71011 14.6528 8.94342 14.575 9.17673C14.4972 9.95442 14.3417 10.6543 14.0306 11.3543C13.8751 11.5876 13.9528 11.8986 14.1862 12.0542L14.8861 12.5986L13.9528 13.7651L13.2529 13.2207C13.0196 13.0652 12.7085 13.0652 12.4752 13.2207C11.9309 13.6873 11.3087 14.0762 10.6088 14.3872C10.3755 14.465 10.1422 14.7761 10.2199 15.0094L10.3755 15.9426L8.89787 16.1759L8.74233 15.2427C8.66456 14.9316 8.43125 14.7761 8.19795 14.6983C7.42026 14.6205 6.72034 14.465 6.02042 14.1539C5.94265 14.1539 5.86488 14.0762 5.78711 14.0762C5.63157 14.0762 5.39827 14.1539 5.3205 14.3095L4.77611 15.0094L3.60958 14.0762L4.15397 13.3762C4.3095 13.1429 4.3095 12.8319 4.15397 12.5986C3.68735 12.0542 3.29851 11.432 2.98743 10.7321C2.90966 10.4988 2.59859 10.2655 2.36528 10.3433L1.43206 10.4988L1.19875 9.02119L2.13198 8.86565Z" fill="#282828"/>
<path d="M8.58676 13.0654C8.82007 13.0654 8.97561 13.0654 9.20892 12.9876C11.542 12.6765 13.1751 10.4212 12.8641 8.08815C12.553 5.75508 10.2977 4.12194 7.96462 4.43301C5.63155 4.74409 3.9984 6.99938 4.30948 9.33245C4.62055 11.51 6.487 13.0654 8.58676 13.0654ZM8.12015 5.67731C8.27569 5.67731 8.43123 5.67731 8.58676 5.67731C10.1421 5.67731 11.4642 6.76608 11.6975 8.32146C11.9308 10.0324 10.7643 11.5877 9.05338 11.8211C7.34246 12.0544 5.78708 10.8878 5.55378 9.17691C5.2427 7.466 6.48701 5.91062 8.12015 5.67731Z" fill="#282828"/>
</svg>
