<svg width="34" height="23" viewBox="0 0 34 23" fill="none" xmlns="http://www.w3.org/2000/svg">
<path d="M33.3629 15.9426C33.3629 12.2875 30.2521 9.2545 26.3637 9.2545C26.1303 9.2545 25.8193 9.2545 25.586 9.33227C25.586 9.09896 25.586 8.94342 25.586 8.71011C25.586 3.88844 21.6975 0 16.8759 0C14.6983 0 12.5986 0.855458 10.9654 2.33307C9.33226 3.81068 8.39904 5.83267 8.2435 8.0102C7.93242 7.93243 7.62135 7.93242 7.31028 7.93242C3.26629 7.93242 0 11.1987 0 15.2427C0 19.2867 3.26629 22.553 7.31028 22.553H14.6206C14.7761 22.553 15.0094 22.4752 15.0872 22.3197C15.2427 22.1641 15.2427 22.0086 15.2427 21.8531V16.4092C15.2427 16.0204 14.9316 15.7093 14.5428 15.7093H13.6096L16.487 12.132C16.5648 12.0542 16.6425 12.0542 16.7203 12.132L19.5978 15.7093H18.6645C18.2757 15.7093 17.9646 16.0204 17.9646 16.4092V21.8531C17.9646 21.8531 17.9646 21.8531 17.9646 21.9308C17.9646 22.3197 18.2757 22.6307 18.6645 22.6307H26.2081H26.2859C30.2521 22.6307 33.3629 19.5978 33.3629 15.9426ZM26.4414 21.3087H19.52V17.1092H20.1421C20.9198 17.1092 21.2309 16.6425 21.3087 16.487C21.3864 16.3315 21.542 15.7871 21.0754 15.2427L17.8868 11.3543C17.5758 10.9654 17.1869 10.8099 16.7203 10.8099C16.2537 10.8099 15.8649 11.0432 15.5538 11.3543L12.3653 15.2427C11.8986 15.7871 12.0542 16.3315 12.1319 16.487C12.2097 16.6425 12.5208 17.1092 13.2985 17.1092H13.9206V21.3087H7.38804H7.23251C3.96622 21.3087 1.32207 18.5868 1.32207 15.3205C1.32207 12.0542 3.96621 9.33227 7.31028 9.33227C7.54358 9.33227 7.85466 9.33226 8.08797 9.41003L8.78789 9.4878C8.94342 9.4878 9.17673 9.4878 9.33227 9.33227C9.4878 9.2545 9.56557 9.02119 9.56557 8.86565L9.64334 8.16573C9.79888 6.29928 10.6543 4.66614 11.9764 3.34406C13.2985 2.09976 15.0872 1.39984 16.9536 1.39984C20.9976 1.39984 24.2639 4.66613 24.2639 8.71011C24.2639 8.86565 24.2639 9.02119 24.2639 9.2545L24.1861 10.0322C24.1861 10.2655 24.2639 10.421 24.4194 10.5766C24.575 10.7321 24.7305 10.8099 24.9638 10.7321L25.7415 10.6543C25.9748 10.6543 26.1303 10.6543 26.3637 10.6543C29.4744 10.6543 32.0408 13.0652 32.0408 15.9426C32.0408 18.8978 29.5522 21.3087 26.4414 21.3087Z" fill="#282828"/>
</svg>
