<svg width="22" height="25" viewBox="0 0 22 25" fill="none" xmlns="http://www.w3.org/2000/svg">
<path d="M13.1742 13.3055C13.252 13.3833 13.3297 13.3833 13.4853 13.3833C13.6408 13.3833 13.7964 13.3055 13.9519 13.2277L21.0288 7.23951C21.1844 7.08398 21.2622 6.92844 21.2622 6.69513C21.2622 6.46183 21.1844 6.30629 21.0288 6.15075L13.9519 0.162553C13.7186 0.00701561 13.4853 -0.070758 13.252 0.0847797C13.0187 0.162549 12.8631 0.395858 12.8631 0.706933V2.57338H0.731189C0.342344 2.57338 0.03125 2.88446 0.03125 3.27331V10.117C0.03125 10.5058 0.342344 10.8169 0.731189 10.8169H12.8631V12.6833C12.7853 12.9944 12.9409 13.2277 13.1742 13.3055ZM1.35333 9.57258V4.051H13.4075C13.7964 4.051 14.1074 3.73991 14.1074 3.35107V2.26231L19.4735 6.77291L14.1074 11.2835V10.1947C14.1074 9.80589 13.7964 9.49482 13.4075 9.49482H1.35333V9.57258Z" fill="#282828"/>
<path d="M0.186055 18.6716L7.26303 24.6598C7.41856 24.7376 7.57411 24.8154 7.72965 24.8154C7.80741 24.8154 7.88518 24.8154 8.04072 24.7376C8.27402 24.6598 8.42956 24.4265 8.42956 24.1155V22.249H20.5615C20.9504 22.249 21.2614 21.9379 21.2614 21.5491V14.7054C21.2614 14.3166 20.9504 14.0055 20.5615 14.0055H8.42956V12.1391C8.42956 11.9057 8.27402 11.6724 8.04072 11.5169C7.80741 11.4391 7.49634 11.4391 7.3408 11.5947L0.263828 17.5829C0.108291 17.7384 0.0305074 17.8939 0.0305074 18.1273C-0.0472614 18.3606 0.0305169 18.5161 0.186055 18.6716ZM7.02971 13.6167V14.7054C7.02971 15.0943 7.3408 15.4053 7.72965 15.4053H19.8616V20.9269H7.72965C7.3408 20.9269 7.02971 21.238 7.02971 21.6269V22.7156L1.66366 18.205L7.02971 13.6167Z" fill="#282828"/>
</svg>
