<svg width="38" height="38" viewBox="0 0 38 38" fill="none" xmlns="http://www.w3.org/2000/svg">
<path d="M37.7957 25.0418C37.6401 24.8863 37.4846 24.7307 37.2513 24.7307C35.307 24.7307 33.985 23.7197 32.5074 22.631C32.1963 22.3976 31.8075 22.1643 31.4964 21.931C30.0966 20.9978 28.3079 19.9868 25.8193 19.9868C24.7305 19.9868 23.875 19.9868 23.1751 19.9868H17.809C16.6425 19.9868 15.7093 20.9201 15.7093 22.0866C15.7093 23.2531 16.6425 24.1863 17.809 24.1863H22.7863C23.4862 24.3419 23.9528 24.8863 23.9528 25.5862C23.9528 26.0528 23.7195 26.5194 23.2529 26.7527C23.0196 26.8305 22.3197 26.986 21.3864 27.2193C20.7643 27.3749 20.1421 27.5304 19.52 27.6859H19.3644C15.9426 28.6192 14.7761 28.9302 14.3872 29.008C14.2317 29.008 14.0762 29.008 13.9984 29.008L6.22151 23.953L4.82166 22.942C4.82166 22.942 4.74388 22.942 4.74388 22.8643C4.66611 22.7865 4.58835 22.7865 4.51059 22.7087C4.35505 22.631 4.19951 22.5532 4.04397 22.5532C3.9662 22.5532 3.81066 22.4754 3.65512 22.4754C3.26628 22.3977 3.03299 22.3977 2.72191 22.4754C1.16653 22.631 0 23.8753 0 25.4306C0 26.2083 0.311057 26.986 0.855439 27.5304C1.08875 27.7637 1.32207 27.9193 1.55538 27.997L14.465 37.407C14.5428 37.4848 14.6205 37.4848 14.6983 37.4848L14.7761 37.5626C15.1649 37.7181 15.5537 37.7959 15.8648 37.7959C16.0981 37.7959 16.3315 37.7959 16.5648 37.7181C16.5648 37.7181 16.5647 37.7181 16.6425 37.7181H16.7203C24.886 35.6184 30.7965 34.1408 33.6739 33.4408H33.7517L33.985 33.3631C35.3848 32.9742 36.4736 32.8187 37.0958 32.8187C37.4846 32.8187 37.7957 32.5076 37.7957 32.1188V31.7299C37.7957 31.6522 37.7957 31.6521 37.7957 31.5744V25.5084C37.9512 25.3529 37.9512 25.1973 37.7957 25.0418ZM36.4736 31.5744C35.7737 31.6521 34.8405 31.8077 33.6739 32.1188H33.5962L33.3628 32.1965C30.4076 32.8965 24.5749 34.3741 16.4092 36.4738C16.0981 36.5516 15.7871 36.5516 15.3982 36.3961L2.41082 27.0638L2.33307 26.986C2.17753 26.9082 2.09976 26.8305 1.94422 26.6749C1.63315 26.3639 1.4776 25.975 1.4776 25.5862C1.4776 24.7307 2.09975 24.1086 2.95521 24.0308H3.03298C3.18852 24.0308 3.34406 24.0308 3.4996 24.0308C3.57737 24.0308 3.65512 24.0308 3.65512 24.1086C3.73289 24.1086 3.81068 24.1863 3.88844 24.1863C3.96621 24.1863 3.9662 24.2641 4.04397 24.2641L5.44382 25.2751L13.3763 30.4078C13.454 30.4856 13.5318 30.4856 13.6096 30.4856C13.9206 30.5634 14.2317 30.5634 14.6205 30.5634C14.6983 30.5634 14.6983 30.5634 14.7761 30.5634C15.1649 30.4856 16.7981 30.019 19.8311 29.2413H19.9866C20.6088 29.0858 21.2309 28.9303 21.853 28.7747C22.864 28.4636 23.6417 28.3081 23.7973 28.2303C23.875 28.2303 23.875 28.2303 23.9528 28.1525C24.886 27.6859 25.4304 26.675 25.4304 25.664C25.4304 24.2641 24.4194 23.0976 23.0196 22.8643H22.9418H17.8868C17.498 22.8643 17.1869 22.5532 17.1869 22.1644C17.1869 21.7755 17.498 21.4644 17.8868 21.4644H23.2529C23.9528 21.4644 24.8083 21.4644 25.8193 21.4644C27.919 21.4644 29.3966 22.3199 30.6409 23.1753C30.952 23.4087 31.2631 23.642 31.5741 23.8753C32.974 24.964 34.4516 25.975 36.4736 26.2083V30.8745V31.5744C36.5513 31.4966 36.5513 31.5744 36.4736 31.5744Z" fill="#282828"/>
<path d="M24.4196 0.699915C24.4196 0.311071 24.1086 0 23.7197 0C18.7425 0 14.3875 3.03297 12.5988 7.46579C12.2877 5.52157 11.3545 3.65513 9.87686 2.17752C9.79909 2.09975 9.79911 2.09974 9.72134 2.02197L9.64356 1.94422C9.41026 1.71092 8.94363 1.71092 8.71033 1.94422C8.71033 1.94422 8.71032 1.9442 8.63255 2.02197C4.97742 5.67711 4.82188 11.5876 8.24371 15.476L3.88867 19.8311L4.66636 20.6088L9.0214 16.2537C10.8879 17.8868 13.2209 18.7423 15.554 18.7423C18.0426 18.7423 20.5312 17.8091 22.4754 15.8648C22.7087 15.6315 22.7087 15.1649 22.4754 14.8538C20.8423 13.2207 18.8203 12.2875 16.7205 12.0542C21.2311 10.2655 24.4196 5.83266 24.4196 0.699915ZM20.92 15.2427C17.8093 17.8868 13.0654 17.8868 9.95463 15.0872L9.87686 15.0094C9.87686 15.0094 9.79909 15.0094 9.79909 14.9316L9.72134 14.8538L9.64356 14.7761C9.56579 14.6983 9.48801 14.6205 9.41024 14.5428L9.33249 14.3872C6.53281 11.2765 6.5328 6.53258 9.17695 3.42183C11.7433 6.29927 12.0544 10.5766 9.79909 13.7651C9.56578 14.0762 9.64355 14.465 9.87686 14.6983C10.1102 14.9316 10.499 15.0094 10.8101 14.7761C13.9208 12.5986 18.1203 12.8318 20.92 15.2427ZM13.1431 11.2765C13.1431 10.8876 13.2209 10.4988 13.2987 10.0322C14.1541 5.21051 18.1981 1.63313 23.0198 1.32206C22.7087 6.68811 18.5092 10.9654 13.1431 11.2765Z" fill="#282828"/>
</svg>
