<svg width="34" height="34" viewBox="0 0 34 34" fill="none" xmlns="http://www.w3.org/2000/svg">
<path d="M15.7093 33.2851H17.3425C26.2859 32.8962 33.2851 25.6637 33.2851 16.6425C33.2851 7.69911 26.2859 0.388844 17.3425 0H15.7871C6.84366 0.544382 0 7.77688 0 16.6425C0 25.5082 6.84366 32.8185 15.7093 33.2851ZM5.67713 27.4524C6.76589 26.6747 7.85466 26.0526 9.09896 25.5082C10.2655 27.919 11.8209 30.0188 13.8429 31.8075C10.7321 31.1853 7.85466 29.6299 5.67713 27.4524ZM15.9426 31.8852C13.5318 30.0188 11.5876 27.6857 10.2655 25.0416C12.0542 24.3417 13.9984 24.0306 15.9426 23.875V31.8852ZM15.9426 22.553C13.8429 22.6307 11.7431 23.0974 9.72111 23.7973C8.94342 21.9308 8.55458 19.9088 8.39904 17.8868H15.9426V22.553ZM15.9426 16.5648H8.39904C8.39904 14.465 8.78788 12.3652 9.41003 10.421C11.5098 11.2765 13.6873 11.7431 15.9426 11.8209V16.5648ZM19.1311 31.8075C21.2309 29.941 22.864 27.7635 24.0306 25.2749C25.3527 25.8193 26.5192 26.4414 27.6857 27.2969C25.4304 29.6299 22.3974 31.2631 19.1311 31.8075ZM28.5412 26.2081C27.2969 25.3526 25.9748 24.575 24.4972 24.0306C25.2749 22.0864 25.7415 19.9866 25.8193 17.8091H31.8075C31.6519 20.9198 30.4854 23.7973 28.5412 26.2081ZM29.0856 7.69911C30.952 10.2655 31.963 13.2985 31.963 16.5648H25.9748C25.9748 14.3872 25.586 12.2097 24.886 10.1877C26.3636 9.48781 27.7635 8.71011 29.0856 7.69911ZM28.2301 6.68813C27.0636 7.62135 25.7415 8.32127 24.4194 8.94342C23.2529 6.14374 21.4642 3.57737 19.1311 1.55538C22.7085 2.17753 25.897 3.96622 28.2301 6.68813ZM17.2647 1.63315C19.9088 3.65514 22.0086 6.37705 23.2529 9.41004C21.3087 10.11 19.2867 10.4988 17.2647 10.4988V1.63315ZM17.2647 11.8209C19.4422 11.7431 21.6197 11.3543 23.7195 10.6543C24.3417 12.5986 24.6527 14.5428 24.6527 16.5648H17.2647V11.8209ZM17.2647 17.8868H24.6527C24.4972 19.9088 24.1083 21.7753 23.4084 23.6417C21.4642 23.0196 19.3644 22.6307 17.2647 22.553V17.8868ZM17.2647 23.7973C19.2089 23.7973 21.0754 24.1861 22.864 24.7305C21.6197 27.4524 19.6755 29.7855 17.2647 31.6519V23.7973ZM15.9426 1.4776V10.4988C13.8429 10.421 11.8209 9.95442 9.87665 9.17673C11.1209 6.14374 13.2207 3.49959 15.9426 1.4776ZM13.7651 1.55538C11.5876 3.4996 9.79888 5.9882 8.63234 8.71011C7.38804 8.08796 6.14374 7.38804 5.05498 6.53258C7.38804 3.88844 10.421 2.17753 13.7651 1.55538ZM4.27729 7.46582C5.52159 8.39904 6.76589 9.25449 8.16573 9.87665C7.38804 11.9764 7.07697 14.2317 6.9992 16.5648H1.16653C1.2443 13.2985 2.33307 10.11 4.27729 7.46582ZM1.32207 17.8868H7.15474C7.31027 20.1421 7.77689 22.2419 8.55458 24.3417C7.2325 24.9638 5.9882 25.6637 4.82167 26.5192C2.72191 24.0306 1.55538 20.9976 1.32207 17.8868Z" fill="#282828"/>
</svg>
