<svg width="42" height="44" viewBox="0 0 42 44" fill="none" xmlns="http://www.w3.org/2000/svg">
<path d="M12.2093 38.1997C11.1205 37.7331 10.2651 37.2665 9.72072 36.9554C9.40965 36.7999 9.17632 36.6443 9.02078 36.4888C8.94301 36.411 8.86524 36.411 8.86524 36.3332C8.39862 35.9444 7.69873 36.0999 7.38766 36.4888C6.99881 36.9554 7.07654 37.5775 7.54316 37.9664C11.5871 41.3104 15.2423 43.1769 18.8196 43.7213C19.5196 43.7991 20.2973 43.8768 20.9972 43.8768C22.0082 43.8768 23.0192 43.7991 24.108 43.5657C25.5078 43.2547 26.9076 42.7881 28.3853 42.0881L29.2407 43.3324C29.474 43.6435 29.8628 43.7991 30.2517 43.7991C30.6405 43.7213 30.9516 43.488 31.1072 43.0991L33.4402 37.1887C33.5958 36.8776 33.518 36.4888 33.3624 36.2555C33.2069 35.9444 32.8958 35.7889 32.5847 35.7111L26.2077 35.0112C25.8188 34.9334 25.43 35.1667 25.1967 35.4778C24.9634 35.7889 24.9634 36.2555 25.1967 36.6443L25.8966 37.7331C24.1857 38.7441 22.3192 39.3662 20.375 39.5995C17.031 39.9106 14.0757 38.9774 12.2093 38.1997ZM27.1409 38.5885C27.452 38.3552 27.5298 37.9664 27.3742 37.6553L26.6743 36.5665L31.8849 37.1887L29.9406 42.0881L29.0851 40.9216C28.8518 40.6105 28.463 40.5328 28.1519 40.6883C26.5188 41.466 25.0412 42.0104 23.6413 42.3214C22.0082 42.6325 20.4528 42.7103 18.8974 42.477C16.7977 42.1659 14.6202 41.3104 12.2871 39.9106C14.3091 40.6883 17.1865 41.466 20.2973 41.1549C22.7859 40.7661 25.0412 39.9106 27.1409 38.5885Z" fill="#282828"/>
<path d="M30.8736 6.9365C31.1847 7.09204 31.418 7.24758 31.5736 7.40312C31.6513 7.48088 31.7291 7.48088 31.7291 7.55865C32.1957 7.9475 32.8956 7.79196 33.2067 7.40312C33.5955 6.9365 33.5178 6.31435 33.0512 5.92551C29.0072 2.58145 25.3521 0.714993 21.7747 0.170611C20.0638 -0.0626961 18.2751 -0.0626961 16.4864 0.326148C15.0865 0.637224 13.6867 1.10384 12.2091 1.80376L11.3536 0.481686C11.1203 0.170611 10.7315 -0.0626961 10.3427 0.0150728C9.95382 0.0928416 9.64271 0.326148 9.48717 0.714993L7.15411 6.62543C6.99857 6.9365 7.07637 7.32535 7.23191 7.55865C7.38744 7.86973 7.69852 8.02527 8.00959 8.10303L14.3867 8.80295C14.4644 8.80295 14.4644 8.80295 14.5422 8.80295C14.931 8.80295 15.2421 8.64742 15.4754 8.33634C15.7087 8.02527 15.7087 7.55865 15.4754 7.16981L14.7755 6.15881C16.4864 5.14782 18.3528 4.52567 20.2971 4.29236C23.4856 3.98129 26.4408 4.91451 28.3073 5.6922C29.4738 6.15881 30.3292 6.62543 30.8736 6.9365ZM20.2193 2.89252C17.8085 3.12583 15.5532 3.98129 13.4534 5.30336C13.1423 5.53666 13.0646 5.92551 13.2201 6.23658L13.92 7.32535L8.70949 6.7032L10.6537 1.80376L11.5092 2.97029C11.7425 3.28137 12.1314 3.35913 12.4424 3.2036C14.0756 2.42591 15.5532 1.88153 16.953 1.57045C18.5862 1.25937 20.1415 1.18161 21.6969 1.41491C23.7967 1.72599 25.9742 2.58145 28.3073 3.98129C26.1297 3.28137 23.3301 2.58145 20.2193 2.89252Z" fill="#282828"/>
<path d="M7.4651 23.7344C9.02048 23.7344 10.4981 23.1123 11.6646 22.0235C12.7534 20.9348 13.3755 19.4572 13.3755 17.824C13.3755 14.5577 10.7314 11.9136 7.4651 11.9136C5.90973 11.9136 4.4321 12.5357 3.26556 13.6245C2.1768 14.7133 1.55469 16.1909 1.55469 17.824C1.55469 21.0903 4.19881 23.7344 7.4651 23.7344ZM4.4321 14.7133C5.28756 13.8578 6.37632 13.469 7.54285 13.469C9.95369 13.469 11.8979 15.4132 11.8979 17.824C11.8979 18.9905 11.4313 20.0793 10.6536 20.9348C9.79815 21.7902 8.70941 22.1791 7.62065 22.1791C5.20982 22.1791 3.26556 20.2348 3.26556 17.824C3.11003 16.6575 3.57664 15.5687 4.4321 14.7133Z" fill="#282828"/>
<path d="M15.0094 32.0556C15.0094 31.8223 15.1649 26.845 11.9764 23.9676C11.6653 23.7343 11.2765 23.6565 10.9654 23.8898C10.9654 23.8898 7.46578 26.534 4.19949 23.8898C3.88842 23.6565 3.49958 23.6565 3.1885 23.8898C3.03297 23.9676 0 26.6895 0 31.9778C0 32.2111 0.0777594 32.3666 0.233297 32.5222C0.388835 32.6777 0.544382 32.7555 0.777689 32.7555H14.1539C14.6205 32.7555 14.9316 32.4444 15.0094 32.0556ZM1.63313 31.2001C1.86643 28.2449 3.18852 26.3007 3.88844 25.523C6.68812 27.3894 9.72107 26.534 11.432 25.523C12.9874 27.3117 13.3762 29.9558 13.454 31.2001H1.63313Z" fill="#282828"/>
<path d="M29.4746 13.6245C28.3858 14.7133 27.7637 16.1909 27.7637 17.824C27.7637 21.0903 30.4078 23.7344 33.6741 23.7344C35.2295 23.7344 36.7071 23.1123 37.8736 22.0235C38.9624 20.9348 39.5846 19.4572 39.5846 17.824C39.5846 14.5577 36.9404 11.9136 33.6741 11.9136C32.041 11.9136 30.5634 12.5357 29.4746 13.6245ZM38.0292 17.824C38.0292 18.9905 37.5626 20.0793 36.7849 20.9348C35.9294 21.7902 34.8406 22.1791 33.7519 22.1791C31.341 22.1791 29.3968 20.2348 29.3968 17.824C29.3968 16.6575 29.8634 15.5687 30.6411 14.7133C31.4966 13.8578 32.5854 13.469 33.7519 13.469C36.085 13.469 38.0292 15.4132 38.0292 17.824Z" fill="#282828"/>
<path d="M38.1063 23.9676C37.7952 23.7343 37.4064 23.6565 37.0953 23.8898C37.0953 23.8898 33.5957 26.534 30.3294 23.8898C30.0183 23.6565 29.6295 23.6565 29.3184 23.8898C29.1628 23.9676 26.1299 26.6895 26.1299 31.9778C26.1299 32.2111 26.2076 32.3666 26.3632 32.5222C26.5187 32.6777 26.6743 32.7555 26.9076 32.7555H40.2838C40.6727 32.7555 41.0615 32.4444 41.0615 31.9778C41.1393 31.8223 41.2948 26.845 38.1063 23.9676ZM27.763 31.2001C27.9963 28.2449 29.3184 26.3007 30.0183 25.523C32.818 27.3894 35.851 26.534 37.5619 25.523C39.1173 27.3117 39.5061 29.9558 39.5839 31.2001H27.763Z" fill="#282828"/>
</svg>
