<svg width="24" height="30" viewBox="0 0 24 30" fill="none" xmlns="http://www.w3.org/2000/svg">
<path d="M4.27749 29.3969H19.2869C21.3866 29.3969 23.0976 27.686 23.0976 25.5862V10.5768C23.0976 8.47702 21.3866 6.76611 19.2869 6.76611H4.27749C2.17773 6.76611 0.466797 8.47702 0.466797 10.5768V25.5862C0.544566 27.686 2.17773 29.3969 4.27749 29.3969ZM1.94442 10.6546C1.94442 9.33249 3.03319 8.32149 4.27749 8.32149H19.2869C20.6089 8.32149 21.6199 9.41026 21.6199 10.6546V25.6639C21.6199 26.986 20.5312 27.997 19.2869 27.997H4.27749C2.95542 27.997 1.94442 26.9082 1.94442 25.6639V10.6546Z" fill="#282828"/>
<path d="M3.7329 6.29928H19.1311C21.2309 6.29928 22.8641 5.13276 22.8641 3.65515V2.64416C22.8641 1.16655 21.2309 0 19.1311 0H3.7329C1.63314 0 0 1.16655 0 2.64416V3.65515C0.0777689 5.13276 1.71091 6.29928 3.7329 6.29928ZM1.47763 2.72191C1.47763 2.17753 2.48859 1.55538 3.7329 1.55538H19.1311C20.4532 1.55538 21.3864 2.17753 21.3864 2.72191V3.73292C21.3864 4.2773 20.3754 4.89945 19.1311 4.89945H3.7329C2.41083 4.89945 1.47763 4.2773 1.47763 3.73292V2.72191Z" fill="#282828"/>
<path d="M4.19949 11.432C4.35502 11.5097 7.23247 12.754 11.5875 12.754C13.8428 12.754 16.4092 12.443 19.2866 11.432C19.6755 11.2764 19.831 10.8876 19.7533 10.4987C19.5977 10.1099 19.2089 9.95437 18.82 10.0321C18.0423 10.3432 17.1869 10.4987 16.4092 10.7321C12.3652 11.6653 8.94336 11.1987 6.8436 10.7321C5.52153 10.421 4.74385 10.1099 4.66608 10.1099C4.27724 9.95435 3.88838 10.1099 3.73284 10.4987C3.65508 10.8098 3.88841 11.2764 4.19949 11.432Z" fill="#282828"/>
<path d="M15.4761 20.0641C15.0094 19.442 14.2317 19.0532 13.2985 18.8976C13.2207 18.8976 13.143 18.8976 13.0652 18.8198V18.0422L13.143 18.1199C13.2985 18.2755 13.5318 18.3532 13.6873 18.3532C13.8429 18.3532 14.0762 18.2754 14.0762 18.2754L15.0094 17.6533C15.2427 17.4978 15.3205 17.2645 15.3205 17.1089C15.3205 16.9534 15.2427 16.7979 15.0872 16.6423C14.5428 16.0202 13.7651 15.5535 12.9096 15.3202V14.6981C12.9096 14.3093 12.5986 13.9204 12.132 13.9204H11.2765C10.8877 13.9204 10.4988 14.2315 10.4988 14.6981V15.3202C10.11 15.398 9.79892 15.4758 9.48784 15.6313C8.24354 16.1757 7.62137 17.0312 7.62137 18.1977C7.62137 18.7421 7.77691 19.2865 8.16576 19.6753C8.24353 19.7531 8.32132 19.9086 8.47685 19.9864C8.94347 20.453 9.64335 20.8418 10.5766 20.9974V22.2417C10.2655 22.0861 10.0322 21.8528 9.72114 21.5418C9.5656 21.3862 9.3323 21.2307 9.099 21.2307C8.94346 21.2307 8.78792 21.3085 8.71015 21.3085L7.85466 21.8528C7.54359 22.0084 7.46582 22.2417 7.46582 22.475C7.46582 22.6305 7.5436 22.7861 7.62137 22.8638C7.85467 23.1749 8.16576 23.486 8.5546 23.797C9.09899 24.2637 9.79891 24.5747 10.4988 24.6525V25.1969C10.4988 25.5857 10.8099 25.9746 11.2765 25.9746H12.132C12.5208 25.9746 12.9096 25.6635 12.9096 25.1969V24.6525C13.5318 24.497 14.0762 24.3414 14.5428 24.0304C15.3983 23.486 15.8649 22.6305 15.8649 21.6195C16.0204 21.0751 15.7871 20.5308 15.4761 20.0641ZM15.3205 22.3194C15.2427 22.7083 15.0872 23.0194 14.7761 23.2527C14.6206 23.4082 14.4651 23.486 14.3095 23.6415C14.2318 23.6415 14.2317 23.7193 14.154 23.7193C13.7651 23.9526 13.2207 24.1081 12.6763 24.1859C12.5208 24.1859 12.443 24.3414 12.443 24.497V25.2746C12.443 25.3524 12.3653 25.4302 12.2875 25.4302H11.4321C11.3543 25.4302 11.2765 25.3524 11.2765 25.2746V24.497C11.2765 24.3414 11.1988 24.2637 11.0432 24.1859C10.3433 24.1081 9.64338 23.797 9.099 23.3304C8.71015 23.0971 8.47682 22.7861 8.24351 22.475V22.3972C8.24351 22.3972 8.24354 22.3972 8.32131 22.3194L9.17675 21.8528C9.25451 21.8528 9.33229 21.775 9.33229 21.775C9.41006 21.775 9.41007 21.7751 9.48784 21.8528C9.95445 22.3194 10.421 22.7083 10.9654 22.8638C11.0432 22.8638 11.121 22.8638 11.1988 22.8638C11.2765 22.7861 11.3543 22.7083 11.3543 22.6305V20.6085C11.3543 20.453 11.2765 20.3752 11.121 20.2974C10.11 20.1419 9.33229 19.7531 8.94345 19.1309C8.71014 18.8198 8.5546 18.431 8.5546 17.9644C8.5546 17.0312 9.02124 16.409 10.0322 15.9424C10.3433 15.7868 10.7321 15.7091 11.121 15.6313C11.2765 15.6313 11.3543 15.4758 11.3543 15.3202V14.4648C11.3543 14.387 11.432 14.3093 11.5098 14.3093H12.3653C12.4431 14.3093 12.5208 14.387 12.5208 14.4648V15.398C12.5208 15.5536 12.5986 15.6313 12.7541 15.7091C13.6096 15.8646 14.3095 16.2535 14.8539 16.8756C14.8539 16.8756 14.8539 16.8756 14.8539 16.9534C14.8539 16.9534 14.8539 16.9534 14.7761 17.0312L13.8429 17.6533C13.7651 17.6533 13.6873 17.7311 13.6873 17.7311C13.6096 17.7311 13.5318 17.7311 13.454 17.6533C13.2207 17.4978 13.0652 17.3422 12.8319 17.2645C12.7541 17.1867 12.5986 17.2645 12.5208 17.2645C12.443 17.3422 12.3653 17.42 12.3653 17.4978V19.0531C12.3653 19.2087 12.4431 19.3642 12.5986 19.3642C13.6874 19.5198 14.3873 19.9086 14.9317 20.453C15.2427 20.7641 15.3205 21.2307 15.3205 21.6973C15.3983 21.9306 15.3983 22.1639 15.3205 22.3194Z" fill="#282828"/>
<path d="M11.1216 17.1867C11.0438 17.109 10.9661 17.109 10.8105 17.1867H10.7327C10.1883 17.4201 10.0328 17.8089 10.1106 18.12C10.1106 18.4311 10.2661 18.8977 10.8883 19.131H10.966C11.0438 19.131 11.1216 19.131 11.1216 19.0532C11.1993 18.9754 11.2771 18.8977 11.2771 18.8199V17.4201C11.2771 17.3423 11.1993 17.2645 11.1216 17.1867Z" fill="#282828"/>
<path d="M12.8322 20.6865C12.7544 20.6865 12.6767 20.6865 12.5989 20.7643C12.5211 20.8421 12.4434 20.9198 12.4434 20.9976V22.7085C12.4434 22.7863 12.5211 22.864 12.5989 22.9418C12.6767 22.9418 12.6767 23.0196 12.7545 23.0196C12.8322 23.0196 12.8322 23.0196 12.91 23.0196C12.9877 23.0196 13.0655 22.9418 13.1433 22.9418C13.5321 22.7085 13.7654 22.3197 13.7654 21.8531C13.6877 21.3864 13.5321 20.9198 12.8322 20.6865ZM12.9878 22.0864V21.4642C13.0655 21.542 13.0655 21.6975 13.0655 21.7753C13.0655 21.8531 13.0655 22.0086 12.9878 22.0864Z" fill="#282828"/>
</svg>
