<svg width="31" height="25" viewBox="0 0 31 25" fill="none" xmlns="http://www.w3.org/2000/svg">
<path d="M12.0542 8.79489C12.2875 8.71712 12.8319 8.56159 13.4541 8.40605C13.9207 8.32828 14.465 8.17274 14.9316 8.01721H15.0094C17.187 7.47282 18.4312 7.08398 18.8201 7.00621C18.8978 7.00621 18.9756 7.00621 19.0534 7.00621L25.0416 10.8947L26.1304 11.6723C26.1304 11.6723 26.2081 11.6723 26.2081 11.7501C26.2859 11.7501 26.3637 11.8279 26.3637 11.8279C26.5192 11.9057 26.597 11.9834 26.7525 11.9834C26.8303 11.9834 26.9858 12.0612 27.0636 12.0612C27.3747 12.139 27.608 12.0612 27.8413 12.0612C29.0856 11.9057 30.0966 10.8947 30.0966 9.57258C30.0966 8.95043 29.8633 8.32828 29.3967 7.86167C29.2411 7.70613 29.0078 7.55059 28.8523 7.47283L18.8979 0.240317C18.8201 0.162548 18.7423 0.162549 18.6645 0.162549H18.5868C18.1202 0.00701161 17.6535 -0.0707561 17.1092 0.0847817C17.1092 0.0847817 17.1092 0.0847817 17.0314 0.0847817H16.9537C10.4988 1.71793 6.14374 2.80669 3.88844 3.35107H3.81069L3.65515 3.42884C2.56638 3.66215 1.78869 3.81768 1.32208 3.81768C0.933236 3.81768 0.622189 4.12876 0.622189 4.51761V4.82868C0.622189 4.90645 0.622189 4.90645 0.622189 4.98422V9.65035C0.622189 9.80589 0.622151 10.0392 0.777689 10.1947C0.933226 10.3503 1.08877 10.5058 1.32208 10.5058C2.79969 10.5058 3.73294 11.2057 4.89948 12.0612C5.13278 12.2167 5.44386 12.45 5.67717 12.6056C6.76593 13.3833 8.16573 14.1609 10.11 14.1609C10.9654 14.1609 11.5876 14.1609 12.132 14.1609H13.8429H13.9206H17.7313C18.198 14.2387 18.4312 14.6276 18.4312 15.0942C18.4312 15.4052 18.2757 15.7163 18.0424 15.8719C17.8869 15.9496 17.498 16.0274 17.0314 16.1052L16.6426 16.1829C16.1759 16.2607 15.6315 16.4163 15.1649 16.5718H15.0872C12.5208 17.2717 11.5876 17.505 11.2765 17.5828C11.1987 17.5828 11.121 17.5828 11.0432 17.5828L5.05498 13.6943L3.96624 12.9166C3.96624 12.9166 3.88844 12.9166 3.88844 12.8389C3.81067 12.8389 3.73294 12.7611 3.73294 12.7611C3.57741 12.6833 3.49964 12.6833 3.3441 12.6056C3.26633 12.6056 3.11077 12.5278 3.033 12.5278C2.72193 12.45 2.48862 12.5278 2.25532 12.5278C1.01101 12.6833 0 13.6943 0 15.0164C0 15.6386 0.233326 16.2607 0.699939 16.7273C0.855477 16.8829 1.08879 17.0384 1.24433 17.1162L11.1987 24.3487C11.2765 24.4264 11.3543 24.4264 11.3543 24.4264H11.432C11.7431 24.5042 12.0542 24.582 12.3653 24.582C12.5208 24.582 12.7541 24.582 12.9874 24.5042H13.0652C15.2427 23.9598 22.7863 22.0156 26.1304 21.2379H26.2081L26.3637 21.1601C27.4524 20.9268 28.2301 20.7713 28.6967 20.7713C29.0856 20.7713 29.3967 20.4602 29.3967 20.0714V19.7603C29.3967 19.7603 29.3967 19.6825 29.3967 19.6048V14.9386C29.3967 14.7831 29.3967 14.5498 29.2411 14.3943C29.0856 14.2387 28.93 14.0832 28.6967 14.0832C27.2191 14.0832 26.2859 13.3833 25.1194 12.5278C24.8861 12.3723 24.575 12.139 24.3417 11.9834C23.2529 11.2057 21.8531 10.428 19.9089 10.428C19.0534 10.428 18.4312 10.428 17.8868 10.428H16.2537H16.176H12.3653C11.8987 10.3503 11.6653 9.96143 11.6653 9.49481C11.5876 9.26151 11.8209 8.95043 12.0542 8.79489ZM17.9646 12.6833C17.9646 12.6833 17.9646 12.6056 17.9646 12.6833C17.9646 12.5278 18.0424 12.45 18.0424 12.2945C18.0424 12.2167 18.0424 12.0612 18.0424 11.9834C18.5868 11.9834 19.209 11.9834 20.0644 11.9834C21.6198 11.9834 22.7863 12.6056 23.7195 13.3055C23.9528 13.461 24.1861 13.6943 24.4972 13.8499C25.586 14.6276 26.6748 15.483 28.2301 15.6386V19.1382V19.527C27.6858 19.6048 26.9858 19.7603 26.2081 19.9158H26.1304L25.9748 19.9936C22.553 20.8491 15.0872 22.7155 12.9097 23.2599C12.6764 23.3377 12.443 23.2599 12.2097 23.1821L2.25532 15.9496L2.17757 15.8719C2.0998 15.7941 2.02199 15.7941 1.94422 15.7163C1.71092 15.483 1.63317 15.2497 1.63317 15.0164C1.63317 14.472 2.02203 14.0054 2.56641 14.0054H2.64416C2.72193 14.0054 2.87749 14.0054 2.95526 14.0054C3.03302 14.0054 3.033 14.0054 3.033 14.0054C3.033 14.0054 3.11078 14.0054 3.18855 14.0832C3.18855 14.0832 3.2663 14.0832 3.2663 14.1609L4.35509 14.9386L10.4988 18.9049C10.5766 18.9826 10.6544 18.9826 10.7321 18.9826C10.9654 19.0604 11.1988 19.0604 11.5098 19.0604C11.5876 19.0604 11.5876 19.0604 11.6653 19.0604C11.9764 18.9826 13.2207 18.6715 15.5538 18.0494H15.6316C16.0982 17.8939 16.5648 17.8161 17.0314 17.6605L17.498 17.5828C18.0424 17.4272 18.509 17.3495 18.5868 17.2717C18.6645 17.2717 18.6646 17.2717 18.7423 17.1939C19.52 16.8051 19.9866 16.0274 19.9866 15.1719C19.7533 13.9276 18.9756 12.9944 17.9646 12.6833ZM12.2097 11.9056H12.2875H16.0982C16.0982 11.9056 16.0982 11.9056 16.176 11.9056C16.4093 11.9056 16.5648 12.0612 16.5648 12.2945C16.5648 12.5278 16.4093 12.6833 16.176 12.6833H12.0542C11.5098 12.6833 10.8877 12.6833 10.0322 12.6833C8.47683 12.6833 7.31028 12.0612 6.37706 11.3613C6.14375 11.2057 5.91044 10.9724 5.59937 10.8169C4.5106 10.0392 3.42185 9.18374 1.86647 9.0282V5.5286V5.13976C2.41085 5.06199 3.11075 4.90645 3.88844 4.75091H3.96624L4.12179 4.67315C6.37709 4.12876 10.8099 3.04 17.1869 1.40685C17.4203 1.32908 17.6535 1.40685 17.8868 1.48462H17.9646L27.4524 8.40605L27.8413 8.71713L27.919 8.79489C27.9968 8.87266 28.0746 8.87267 28.1523 8.95043C28.3856 9.18374 28.4634 9.41704 28.4634 9.65035C28.4634 10.1947 28.0746 10.6613 27.5302 10.6613H27.4524C27.3747 10.6613 27.2191 10.6613 27.1414 10.6613C27.0636 10.6613 27.0636 10.6613 26.9858 10.6613C26.9858 10.6613 26.908 10.6613 26.8303 10.5836C26.8303 10.5836 26.7525 10.5836 26.7525 10.5058L25.6637 9.72812L19.52 5.76191C19.4422 5.68414 19.3645 5.68414 19.2867 5.68414C19.0534 5.60637 18.8201 5.60637 18.509 5.60637C18.4313 5.60637 18.4313 5.60637 18.3535 5.60637C18.0424 5.68414 16.7981 5.99522 14.465 6.61737H14.3872C13.9206 6.77291 13.454 6.85068 12.9874 7.00621C12.2097 7.23952 11.5876 7.39506 11.5098 7.39506C11.4321 7.39506 11.4321 7.39506 11.3543 7.47283C10.5766 7.86167 10.11 8.63936 10.11 9.49481C10.1877 10.7391 11.0432 11.7501 12.2097 11.9056Z" fill="#282828"/>
</svg>
