<svg width="40" height="27" viewBox="0 0 40 27" fill="none" xmlns="http://www.w3.org/2000/svg">
<path d="M11.1987 25.4306C11.1987 25.5861 11.2765 25.8194 11.432 25.8972C11.5876 26.0527 11.7431 26.1305 11.8987 26.1305H26.9858C27.3747 26.1305 27.6857 25.8194 27.6857 25.5083C27.6857 25.4306 27.6857 24.4196 27.5302 23.0975H38.4956C38.8844 23.0975 39.1955 22.7864 39.1955 22.4753C39.1955 22.242 39.3511 16.7204 35.8515 13.5319C35.6182 13.2986 35.2293 13.2986 34.996 13.5319C34.9182 13.5319 30.952 16.5649 27.2191 13.5319C26.9858 13.2986 26.597 13.2986 26.3637 13.5319C26.2859 13.6097 25.1971 14.5429 24.2639 16.4871C24.0306 16.4094 23.7973 16.4094 23.564 16.5649C23.4085 16.7204 19.4423 19.5979 15.7871 16.5649C15.6316 16.4094 15.3982 16.4094 15.1649 16.4094C14.6983 15.3984 13.9984 14.3874 13.0652 13.5319C12.8319 13.2986 12.443 13.2986 12.2097 13.5319C12.132 13.5319 8.16574 16.5649 4.43284 13.5319C4.19953 13.2986 3.8107 13.2986 3.5774 13.5319C3.42186 13.6875 0.0777689 16.6427 0 22.4753C0 22.6309 0.0778069 22.8642 0.233345 22.942C0.388882 23.0975 0.544401 23.1753 0.699939 23.1753H11.6653C11.2765 23.7974 11.1987 24.5751 11.1987 25.4306ZM26.7525 14.854C30.3299 17.3426 33.9073 15.6317 35.2293 14.854C37.2513 17.0315 37.6401 20.2978 37.7179 21.6976H27.1414C26.8303 20.2978 26.2082 18.7424 25.1194 17.4204C25.6638 16.1761 26.3637 15.3206 26.7525 14.854ZM15.2427 17.9647C18.8201 20.4533 22.3974 18.7424 23.7195 17.9647C25.7415 20.1423 26.1304 23.4086 26.2081 24.8084H12.5208C12.8319 21.0755 14.465 18.8202 15.2427 17.9647ZM1.16653 21.6976C1.39984 18.0425 3.11076 15.7094 3.88844 14.854C7.46581 17.3426 11.0432 15.6317 12.3653 14.854C13.0652 15.6317 13.5318 16.4871 13.9206 17.3426C13.2207 18.1981 12.2875 19.5979 11.7431 21.6976H1.16653Z" fill="#282828"/>
<path d="M1.55469 6.45481C1.55469 10.0322 4.43217 12.9096 8.00954 12.9096C9.72046 12.9096 11.3536 12.2097 12.5979 11.0432C12.7534 10.8876 12.909 10.7321 13.0645 10.4988C13.5311 13.6096 16.1752 15.9426 19.4415 15.9426C21.1524 15.9426 22.7856 15.2427 24.0299 14.0762C25.0409 13.0652 25.663 11.7431 25.8186 10.3433C26.9851 11.8986 28.8516 12.9096 30.9514 12.9096C32.6623 12.9096 34.2954 12.2097 35.5397 11.0432C36.784 9.79888 37.4062 8.2435 37.4062 6.45481C37.4062 2.87744 34.5287 0 30.9514 0C29.2404 0 27.6073 0.699915 26.363 1.86645C25.352 2.87744 24.7298 4.19952 24.5743 5.59936C23.4078 4.04398 21.5413 3.03298 19.4415 3.03298C17.7306 3.03298 16.0975 3.7329 14.8532 4.89944C14.6977 5.05497 14.5421 5.21051 14.3866 5.44382C13.9199 2.33307 11.2758 0 8.00954 0C6.29863 0 4.66546 0.699915 3.42116 1.86645C2.25463 3.11075 1.55469 4.7439 1.55469 6.45481ZM27.2962 2.87745C28.2294 1.94422 29.5515 1.39984 30.8736 1.39984C33.6732 1.39984 35.9285 3.65513 35.9285 6.45481C35.9285 7.77688 35.3842 9.09895 34.451 10.0322C33.5177 10.9654 32.1956 11.5098 30.8736 11.5098C28.0739 11.5098 25.8186 9.25449 25.8186 6.45481C25.8186 5.13274 26.363 3.81067 27.2962 2.87745ZM15.7864 5.91043C16.7197 4.97721 18.0417 4.43282 19.3638 4.43282C22.1635 4.43282 24.4188 6.68812 24.4188 9.4878C24.4188 10.8099 23.8744 12.1319 22.9411 13.0652C22.0079 13.9984 20.6859 14.5428 19.3638 14.5428C16.5641 14.5428 14.3088 12.2875 14.3088 9.4878C14.3088 8.16573 14.8532 6.84366 15.7864 5.91043ZM8.00954 1.39984C10.8092 1.39984 13.0645 3.65513 13.0645 6.45481C13.0645 7.77688 12.5201 9.09895 11.5869 10.0322C10.6537 10.9654 9.33161 11.5098 8.00954 11.5098C5.20986 11.5098 2.95457 9.25449 2.95457 6.45481C2.95457 5.13274 3.49892 3.81067 4.43215 2.87745C5.36537 1.94422 6.68747 1.39984 8.00954 1.39984Z" fill="#282828"/>
</svg>
