<svg width="101" height="101" viewBox="0 0 101 101" fill="none" xmlns="http://www.w3.org/2000/svg">
<path d="M50.5 15C30.8939 15 15 30.8939 15 50.5C15 64.5487 23.1606 76.6914 35 82.4464" stroke="url(#paint0_linear_102_4)"/>
<path d="M50.5 86.0003C70.1061 86.0003 86 70.1064 86 50.5003C86 36.0594 77.3775 23.6324 65 18.0869" stroke="url(#paint1_linear_102_4)"/>
<circle opacity="0.1" cx="50.5" cy="50.5" r="50" stroke="url(#paint2_linear_102_4)"/>
<circle opacity="0.1" cx="50.5" cy="50.5" r="22" stroke="url(#paint3_linear_102_4)"/>
<circle cx="50.5" cy="50.5" r="8" stroke="white"/>
<circle cx="61.5" cy="16.5" r="4" stroke="white"/>
<circle cx="38.5" cy="84.5" r="4" stroke="white"/>
<defs>
<linearGradient id="paint0_linear_102_4" x1="34.5" y1="88.5" x2="60" y2="-7" gradientUnits="userSpaceOnUse">
<stop stop-color="white"/>
<stop offset="1" stop-color="white" stop-opacity="0"/>
</linearGradient>
<linearGradient id="paint1_linear_102_4" x1="50.5" y1="15.0005" x2="86" y2="104" gradientUnits="userSpaceOnUse">
<stop stop-color="white"/>
<stop offset="1" stop-color="white" stop-opacity="0"/>
</linearGradient>
<linearGradient id="paint2_linear_102_4" x1="50.5" y1="-1.50502e-06" x2="101" y2="126.606" gradientUnits="userSpaceOnUse">
<stop stop-color="white"/>
<stop offset="1" stop-color="white" stop-opacity="0"/>
</linearGradient>
<linearGradient id="paint3_linear_102_4" x1="50.5" y1="28" x2="73" y2="84.4085" gradientUnits="userSpaceOnUse">
<stop stop-color="white"/>
<stop offset="1" stop-color="white" stop-opacity="0"/>
</linearGradient>
</defs>
</svg>
