<svg width="34" height="33" viewBox="0 0 34 33" fill="none" xmlns="http://www.w3.org/2000/svg">
<path d="M32.2157 30.8858C28.094 30.8858 23.9722 30.8858 19.9283 30.8858C21.2503 29.4859 22.5724 28.1639 23.8945 26.764C23.9722 26.764 24.05 26.7641 24.1278 26.6863C24.2833 26.6085 24.3611 26.5307 24.4388 26.3752C27.083 20.0759 29.7271 13.7767 32.3713 7.39962C32.7601 6.46639 33.1489 5.61094 33.46 4.67771C33.46 4.59994 33.5378 4.52216 33.5378 4.52216C34.0822 2.81125 33.3823 0.944795 31.6713 0.244875C29.9604 -0.455045 27.9384 0.400384 27.2385 2.1113C24.5944 8.41058 21.9503 14.7876 19.3061 21.0869C18.9173 22.0202 18.5284 22.8756 18.2173 23.8088C18.1396 24.0421 18.2173 24.2754 18.3729 24.431C18.3729 24.9754 18.3729 25.442 18.3729 25.9864C18.3729 26.2197 18.3729 26.453 18.3729 26.6863C18.3729 28.0861 18.2951 29.4859 18.2951 30.8858C12.3847 30.8858 6.47426 30.8858 0.641593 30.8858C-0.213864 30.8858 -0.213864 32.5967 0.641593 32.5967C11.2182 32.5967 21.7947 32.5967 32.3713 32.5967C33.0712 32.5967 33.0712 30.8858 32.2157 30.8858ZM32.449 3.66668C31.2047 3.12229 29.8827 2.57791 28.6384 2.1113C29.8827 0.478153 32.6046 1.64469 32.449 3.66668ZM27.1608 5.29985C27.4718 4.59993 27.7829 3.9 28.0162 3.20008C29.3383 3.74446 30.6604 4.28883 31.9824 4.83321C29.4161 10.977 26.8497 17.1207 24.2833 23.1867C23.9722 23.8866 23.6612 24.5865 23.4279 25.2865C22.1058 24.7421 20.7837 24.1977 19.4616 23.6533C22.1058 17.5873 24.6722 11.4436 27.1608 5.29985ZM19.4616 25.2865C20.4726 25.6753 21.4059 26.1419 22.4169 26.5307C21.8725 27.0751 21.2503 27.6973 20.706 28.2417C20.2393 28.0861 19.8505 27.8528 19.3839 27.6973C19.4616 26.9196 19.4616 26.0642 19.4616 25.2865Z" fill="#282828"/>
</svg>
