<svg width="26" height="32" viewBox="0 0 26 32" fill="none" xmlns="http://www.w3.org/2000/svg">
<path d="M19.5978 10.8876C22.6308 10.8876 25.0416 8.47681 25.0416 5.44382C25.0416 2.41084 22.6308 0 19.5978 0C16.5648 0 14.1539 2.41084 14.1539 5.44382C14.1539 6.14374 14.3095 6.76589 14.5428 7.38804L8.55458 11.5098C7.69912 10.8877 6.61035 10.5766 5.44382 10.5766C2.41084 10.5766 0 12.9874 0 16.0204C0 19.0534 2.41084 21.4642 5.44382 21.4642C6.68812 21.4642 7.85465 20.9976 8.78787 20.2977L14.3095 24.1084C14.1539 24.575 14.0762 25.0416 14.0762 25.586C14.0762 28.619 16.487 31.0298 19.52 31.0298C22.553 31.0298 24.9638 28.619 24.9638 25.586C24.9638 22.553 22.553 20.1422 19.52 20.1422C18.1979 20.1422 17.0314 20.6088 16.0982 21.3864L10.6543 17.6535C10.8099 17.1869 10.8876 16.6425 10.8876 16.0982C10.8876 15.3982 10.7321 14.7761 10.5766 14.2317L16.5648 10.11C17.4202 10.5766 18.4312 10.8876 19.5978 10.8876ZM19.5978 1.39985C21.8531 1.39985 23.7195 3.2663 23.7195 5.5216C23.7195 7.77689 21.8531 9.64336 19.5978 9.64336C17.3425 9.64336 15.476 7.77689 15.476 5.5216C15.476 3.18853 17.3425 1.39985 19.5978 1.39985ZM5.44382 20.1422C3.18852 20.1422 1.32208 18.2757 1.32208 16.0204C1.32208 13.7651 3.18852 11.8987 5.44382 11.8987C7.69912 11.8987 9.56556 13.7651 9.56556 16.0204C9.56556 18.2757 7.69912 20.1422 5.44382 20.1422ZM19.5978 21.4642C21.8531 21.4642 23.7195 23.3307 23.7195 25.586C23.7195 27.8413 21.8531 29.7077 19.5978 29.7077C17.3425 29.7077 15.476 27.8413 15.476 25.586C15.476 23.3307 17.3425 21.4642 19.5978 21.4642ZM15.1649 22.3197C15.0094 22.4752 14.9316 22.6308 14.8539 22.7863L9.72111 19.2867C9.87665 19.1312 9.95441 18.9756 10.0322 18.8201L15.1649 22.3197ZM9.95441 12.9096C9.87664 12.7541 9.7211 12.5986 9.56556 12.443L15.1649 8.63235C15.2427 8.78789 15.3982 8.94343 15.5538 9.09897L9.95441 12.9096Z" fill="#282828"/>
</svg>
