<svg width="50" height="35" viewBox="0 0 50 35" fill="none" xmlns="http://www.w3.org/2000/svg">
<path d="M37.9511 3.2666H11.1986C10.732 3.2666 10.4209 3.65545 10.4209 4.04429V22.0867C10.4209 22.5533 10.8097 22.8644 11.1986 22.8644H37.9511C38.4177 22.8644 38.7288 22.4755 38.7288 22.0867V4.04429C38.8065 3.57768 38.4177 3.2666 37.9511 3.2666ZM37.1734 21.309H12.054V4.89975H37.1734V21.309Z" fill="#282828"/>
<path d="M49.461 31.3409C49.461 31.2631 49.461 31.2631 49.461 31.1853C49.461 31.1853 49.461 31.1853 49.461 31.1075C49.461 31.1075 49.461 31.0298 49.3832 31.0298C49.3832 30.952 49.3055 30.952 49.3055 30.952L49.2277 30.8742C49.2277 30.8742 49.2277 30.8742 49.1499 30.8742C49.1499 30.8742 49.1499 30.8742 49.0722 30.8742L43.0062 27.8413V0.777689C43.0062 0.311075 42.6173 0 42.2285 0H6.9992C6.53259 0 6.22151 0.388844 6.22151 0.777689V27.8413L0.388844 30.7965C0.388844 30.7965 0.38884 30.7965 0.311071 30.7965C0.311071 30.7965 0.311066 30.7965 0.233297 30.7965L0.155524 30.8742L0.0777736 30.952L0 31.0298C0 31.0298 0 31.0298 0 31.1075V31.1853C0 31.1853 0 31.1853 0 31.2631V31.3409V33.5184C0 33.985 0.388844 34.2961 0.777689 34.2961H48.7611C49.2277 34.2961 49.5388 33.9072 49.5388 33.5184V31.3409C49.461 31.4186 49.461 31.3409 49.461 31.3409ZM7.77689 1.55538H41.373V27.4524H7.77689V1.55538ZM7.15472 29.0856H41.9952L45.2615 30.7187H3.96622L7.15472 29.0856ZM47.9056 32.8185H1.4776V32.2741H47.9056V32.8185Z" fill="#282828"/>
<path d="M24.8857 23.3306C23.9525 23.3306 23.1748 24.1083 23.1748 25.0415C23.1748 25.9747 23.9525 26.7524 24.8857 26.7524C25.819 26.7524 26.5966 25.9747 26.5966 25.0415C26.5966 24.1083 25.8967 23.3306 24.8857 23.3306ZM24.8857 25.8192C24.4969 25.8192 24.108 25.5081 24.108 25.0415C24.108 24.6526 24.4191 24.2638 24.8857 24.2638C25.2746 24.2638 25.6634 24.5749 25.6634 25.0415C25.6634 25.4303 25.3523 25.8192 24.8857 25.8192Z" fill="#282828"/>
</svg>
