<svg width="37" height="35" viewBox="0 0 37 35" fill="none" xmlns="http://www.w3.org/2000/svg">
<path d="M36.7847 28.3079V0.777689C36.7847 0.311075 36.3958 0 36.007 0H0.777689C0.311075 0 0 0.388844 0 0.777689V28.3079C0 28.7745 0.388844 29.0856 0.777689 29.0856H36.007C36.4736 29.0856 36.7847 28.7745 36.7847 28.3079ZM35.2293 27.5302H1.63315V1.63315H35.2293V27.5302Z" fill="#282828"/>
<path d="M4.97691 22.9415H31.7294C32.196 22.9415 32.5071 22.5527 32.5071 22.1638V4.12144C32.5071 3.65483 32.1182 3.34375 31.7294 3.34375H4.97691C4.51029 3.34375 4.19922 3.73259 4.19922 4.12144V22.1638C4.19922 22.5527 4.58806 22.9415 4.97691 22.9415ZM5.83236 4.89913H30.9517V21.3084H5.83236V4.89913Z" fill="#282828"/>
<path d="M18.3535 23.564C17.4203 23.564 16.6426 24.3417 16.6426 25.2749C16.6426 26.2081 17.4203 26.9858 18.3535 26.9858C19.2867 26.9858 20.0644 26.2081 20.0644 25.2749C20.1422 24.3417 19.3645 23.564 18.3535 23.564ZM18.3535 26.0526C17.9646 26.0526 17.5758 25.7415 17.5758 25.2749C17.5758 24.886 17.8869 24.4972 18.3535 24.4972C18.7423 24.4972 19.1312 24.8083 19.1312 25.2749C19.1312 25.6637 18.8201 26.0526 18.3535 26.0526Z" fill="#282828"/>
<path d="M27.6083 34.4517C28.0749 34.4517 28.386 34.0629 28.386 33.6741V30.8744C28.386 30.4078 27.9972 30.0967 27.6083 30.0967H9.1771C8.71049 30.0967 8.39941 30.4855 8.39941 30.8744V33.6741C8.39941 34.1407 8.78826 34.4517 9.1771 34.4517H27.6083ZM9.95479 31.6521H26.8306V32.8186H9.95479V31.6521Z" fill="#282828"/>
</svg>
