<svg width="30" height="33" viewBox="0 0 30 33" fill="none" xmlns="http://www.w3.org/2000/svg">
<path d="M9.33226 13.6873C4.19952 13.6873 0 17.8868 0 23.0196C0 28.1523 4.19952 32.3519 9.33226 32.3519C13.3762 32.3519 16.8758 29.7077 18.1201 26.0526C18.7423 26.0526 19.3645 26.0526 19.8311 26.0526C22.7085 26.0526 29.3966 25.7415 29.3966 22.9418V19.3644V19.2089C29.3966 19.1311 29.3966 19.0534 29.3966 18.9756C29.3966 18.8978 29.3966 18.8201 29.3966 18.7423V15.6315C29.3966 15.5538 29.3966 15.476 29.3966 15.3982C29.3966 15.3205 29.3966 15.2427 29.3966 15.1649V11.7431C29.3966 11.6653 29.3966 11.5876 29.3966 11.5098C29.3966 11.3543 29.3966 11.1987 29.3189 11.1209C29.3189 10.9654 29.3966 10.8876 29.3966 10.7321V6.9992C29.3966 6.92143 29.3966 6.84366 29.3966 6.76589C29.3966 6.68812 29.3966 6.61035 29.3966 6.53259V3.11076C29.3966 3.03299 29.3966 2.95522 29.3966 2.87745C29.3966 2.72191 29.3966 2.56637 29.3189 2.41084C29.2411 2.09976 29.0855 1.86645 28.8522 1.71092C26.908 0.0777692 20.6865 0 19.8311 0C18.9756 0 12.8318 0.0777692 10.8098 1.71092C10.5765 1.86645 10.421 2.09976 10.3433 2.41084C10.2655 2.56637 10.2655 2.72191 10.2655 2.87745C10.2655 2.95522 10.2655 3.03299 10.2655 3.11076V6.53259C10.2655 6.61035 10.2655 6.68812 10.2655 6.76589C10.2655 6.84366 10.2655 6.92143 10.2655 6.9992V10.7321C10.2655 10.8876 10.2655 10.9654 10.3433 11.1209C10.2655 11.2765 10.2655 11.3543 10.2655 11.5098C10.2655 11.5876 10.2655 11.6653 10.2655 11.7431V13.7651C9.95443 13.6873 9.64334 13.6873 9.33226 13.6873ZM28.3078 22.9418C28.3078 22.9418 28.3078 23.0196 28.3078 22.9418C28.3078 23.0196 28.3078 23.0196 28.3078 23.0196C28.2301 24.0306 24.4972 24.886 19.8311 24.886C19.3645 24.886 18.8978 24.886 18.509 24.886C18.6645 24.2639 18.6645 23.6417 18.6645 23.0196C18.6645 22.864 18.6645 22.7085 18.6645 22.553C19.1311 22.553 19.52 22.553 19.8311 22.553C22.0086 22.553 26.2859 22.3974 28.3078 21.0754V22.9418ZM28.3078 19.3644C28.3078 19.4422 28.3078 19.4422 28.3078 19.4422C28.2301 20.531 24.4972 21.3087 19.8311 21.3087C19.3645 21.3087 18.9756 21.3087 18.509 21.3087C18.3534 20.2977 17.9646 19.3644 17.498 18.509C18.3535 18.5868 19.2089 18.5868 19.8311 18.5868C22.0086 18.5868 26.2859 18.4312 28.3078 17.1092V19.3644ZM28.3078 10.5766C28.3078 10.6543 28.3078 10.6543 28.3078 10.6543C28.2301 11.6653 24.4972 12.5208 19.8311 12.5208C15.1649 12.5208 11.432 11.6653 11.3542 10.6543V10.5766C11.3542 10.5766 11.3542 10.5766 11.3542 10.4988V8.32127C13.3762 9.56557 17.6535 9.79888 19.8311 9.79888C22.0086 9.79888 26.2859 9.64334 28.3078 8.32127V10.5766ZM19.8311 1.16653C24.6527 1.16653 27.6079 2.02199 28.0745 2.64414C27.6079 3.18852 24.575 4.12175 19.8311 4.12175C15.0094 4.12175 12.0541 3.26629 11.5875 2.64414C12.0541 2.09976 15.0094 1.16653 19.8311 1.16653ZM19.8311 5.44382C20.6088 5.44382 25.897 5.36605 28.3078 4.12175V6.61035V6.68812C28.2301 7.69912 24.4972 8.55458 19.8311 8.55458C15.1649 8.55458 11.432 7.69912 11.3542 6.68812V6.61035C11.3542 6.61035 11.3542 6.61035 11.3542 6.53259V4.04398C13.7651 5.36605 19.0534 5.44382 19.8311 5.44382ZM19.8311 14.2317C20.6088 14.2317 25.897 14.1539 28.3078 12.9096V15.3982V15.476C28.2301 16.487 24.4972 17.3425 19.8311 17.3425C18.7423 17.3425 17.6535 17.2647 16.7203 17.1869C15.3982 15.5538 13.5318 14.3095 11.432 13.8429V12.8319C13.7651 14.2317 19.0534 14.2317 19.8311 14.2317ZM17.498 23.0196C17.498 27.5302 13.8429 31.1853 9.33226 31.1853C4.82167 31.1853 1.16653 27.5302 1.16653 23.0196C1.16653 18.509 4.82167 14.8539 9.33226 14.8539C13.8429 14.8539 17.498 18.509 17.498 23.0196Z" fill="#282828"/>
<path d="M3.0332 23.0195C3.0332 26.5191 5.83291 29.3188 9.33251 29.3188C12.8321 29.3188 15.6318 26.5191 15.6318 23.0195C15.6318 19.5199 12.8321 16.7202 9.33251 16.7202C5.83291 16.7202 3.0332 19.5199 3.0332 23.0195ZM14.8541 23.0195C14.8541 26.0525 12.3655 28.5411 9.33251 28.5411C6.29952 28.5411 3.81089 26.0525 3.81089 23.0195C3.81089 19.9865 6.29952 17.4979 9.33251 17.4979C12.3655 17.4979 14.8541 19.9865 14.8541 23.0195Z" fill="#282828"/>
<path d="M8.55464 19.053V19.753C8.24356 19.9085 7.93246 20.064 7.69915 20.2973C7.3103 20.6862 7.1548 21.1528 7.1548 21.6972C7.1548 22.0083 7.23254 22.2416 7.3103 22.4749C7.46584 22.7859 7.69917 23.097 8.01024 23.3303C8.24355 23.4859 8.63238 23.7192 9.02123 23.8747C9.41007 24.0302 9.48785 24.108 9.56562 24.1858C9.64339 24.2636 9.64337 24.2636 9.64337 24.2636V24.3413C9.64337 24.4191 9.64339 24.4969 9.56562 24.4969C9.48785 24.5746 9.33231 24.5746 9.17678 24.5746C8.78793 24.5746 8.3991 24.4191 8.16579 24.2636L7.93249 24.108C7.85472 24.0302 7.69917 24.0302 7.6214 24.0302C7.54363 24.0302 7.3881 24.1858 7.3881 24.2636L6.99926 25.2745C6.92149 25.4301 6.99927 25.6634 7.1548 25.7412L7.3103 25.8189C7.54361 25.9745 7.77692 26.13 8.08799 26.2078C8.16576 26.2078 8.32132 26.2855 8.39909 26.2855V26.9077C8.39909 27.141 8.55463 27.2965 8.78793 27.2965H9.79892C10.0322 27.2965 10.1878 27.141 10.1878 26.9077V26.2078C10.5766 26.0522 10.8877 25.8189 11.121 25.5856C11.4321 25.1968 11.6654 24.7302 11.6654 24.1858C11.6654 23.8747 11.5876 23.6414 11.5098 23.4081C11.3543 23.097 11.1988 22.7859 10.8877 22.4749C10.6544 22.2416 10.3433 22.086 9.87672 21.9305C9.87672 21.9305 9.87669 21.9305 9.79892 21.9305C9.3323 21.7749 9.1768 21.6194 9.09903 21.5416L9.02123 21.4639C9.02123 21.4639 9.02123 21.4639 9.02123 21.3861V21.3083C9.099 21.2306 9.17679 21.2306 9.33232 21.2306C9.48786 21.2306 9.72118 21.2306 9.87672 21.3083C10.0323 21.3861 10.11 21.3861 10.1878 21.4639L10.4211 21.6194C10.4988 21.6972 10.6544 21.6972 10.7322 21.6194C10.8099 21.5416 10.9655 21.4639 10.9655 21.3861L11.3543 20.3751C11.4321 20.2196 11.3543 19.9863 11.1987 19.9085L11.0432 19.8307C10.8099 19.6752 10.4988 19.5974 10.1878 19.5197V18.9753C10.1878 18.742 10.0322 18.5864 9.79892 18.5864H8.78793C8.71016 18.6642 8.55464 18.8197 8.55464 19.053ZM9.33232 19.9863V19.4419H9.56562V19.9085C9.56562 20.1418 9.72116 20.2973 9.95447 20.2973C10.2655 20.2973 10.4988 20.3751 10.7322 20.5306L10.6544 20.764C10.5766 20.764 10.4988 20.6862 10.3433 20.6862C10.11 20.6084 9.79893 20.5306 9.56562 20.5306C9.17678 20.5306 8.86572 20.6084 8.71018 20.8417C8.55464 20.9973 8.39909 21.2306 8.39909 21.4639C8.39909 21.6194 8.39907 21.775 8.47684 21.8527C8.55461 22.0083 8.63241 22.086 8.71018 22.1638C8.86572 22.3193 9.17676 22.4749 9.64337 22.6304C10.0322 22.7859 10.2656 22.9415 10.4989 23.097C10.7322 23.2526 10.8099 23.4859 10.8877 23.6414C10.9655 23.7969 10.9655 23.9525 10.9655 24.108C10.9655 24.4191 10.8877 24.7302 10.6544 24.9635C10.4211 25.1968 10.1878 25.3523 9.79892 25.4301C9.64338 25.5079 9.48787 25.6634 9.48787 25.8189V26.4411H9.25453V25.8967C9.25453 25.6634 9.09899 25.5079 8.86568 25.5079C8.71014 25.5079 8.47688 25.4301 8.32134 25.4301C8.1658 25.3523 8.01023 25.3523 7.8547 25.2745L7.93249 24.9635C8.32134 25.1968 8.71016 25.2745 9.17678 25.2745C9.56562 25.2745 9.87671 25.1968 10.11 24.9635C10.3433 24.7302 10.4989 24.4969 10.4989 24.1858C10.4989 24.0302 10.4988 23.8747 10.4211 23.7969C10.3433 23.6414 10.2655 23.5636 10.1878 23.4859C10.0322 23.3303 9.72117 23.1748 9.33232 23.0193C8.94348 22.8637 8.71014 22.7082 8.47684 22.5526C8.24353 22.3971 8.08801 22.2416 8.01024 22.0083C7.93247 21.8527 7.93249 21.6972 7.93249 21.5416C7.93249 21.2306 8.01023 20.9195 8.24354 20.6862C8.39908 20.4529 8.71015 20.3751 9.02123 20.2973C9.25454 20.3751 9.33232 20.2196 9.33232 19.9863Z" fill="#282828"/>
</svg>
