<svg width="39" height="28" viewBox="0 0 39 28" fill="none" xmlns="http://www.w3.org/2000/svg">
<path d="M25.5859 17.3888C25.5859 17.6998 25.7415 17.9331 26.0526 18.0109V16.7666H25.9748C25.6637 16.9999 25.5859 17.1554 25.5859 17.3888Z" fill="#282828"/>
<path d="M27.4521 21.3551C27.5299 21.3551 27.5299 21.2773 27.6077 21.2773C27.841 21.1217 27.9965 20.8884 27.9965 20.5774C27.9965 20.2663 27.841 20.033 27.4521 19.8774V21.3551Z" fill="#282828"/>
<path d="M23.6417 0.279819L23.564 0.202049C23.564 0.202049 23.564 0.202049 23.4862 0.202049C22.8641 -0.0312573 22.2419 -0.0312571 21.6197 0.0465118C21.6197 0.0465118 21.6198 0.0465118 21.542 0.0465118H21.4642C15.7093 1.60189 8.01019 3.70165 4.19951 4.71264H4.12174L3.88844 4.79041C2.4886 5.17926 1.32207 5.41257 0.699915 5.41257C0.311071 5.41257 0 5.72364 0 6.11248V6.65687C0 6.73463 0 6.73464 0 6.8124V13.345C0 13.5005 -1.42422e-05 13.7338 0.155524 13.8894C0.311061 14.0449 0.466608 14.2004 0.699915 14.2004C2.64414 14.2004 3.96619 15.2892 5.52157 16.4557C5.83265 16.6891 6.22151 17.0001 6.53258 17.2334C7.93242 18.3222 9.7211 19.3332 12.2875 19.3332C13.3762 19.3332 14.2317 19.3332 14.9316 19.3332H17.9646C18.0424 24.0771 21.7753 27.9655 26.2859 27.9655C30.8742 27.9655 34.6071 23.9993 34.6071 19.0999C34.6071 18.1667 34.4516 17.2334 34.2183 16.378H34.2961C34.4516 16.378 34.5294 16.4557 34.6849 16.4557C35.0737 16.5335 35.3071 16.5335 35.6181 16.4557C37.1735 16.3002 38.34 14.9004 38.34 13.2672C38.34 12.4118 38.029 11.6341 37.4846 11.0897C37.4846 11.0897 37.4846 11.0897 37.4846 11.0119C37.2513 10.7786 37.018 10.6231 36.7847 10.4675L23.6417 0.357587C23.7972 0.357587 23.7195 0.357587 23.6417 0.279819ZM26.5192 27.1101C22.6307 27.1101 19.4422 23.8438 19.1311 19.722H20.9976C22.0864 19.722 22.9418 19.0221 23.3307 18.0111C23.4084 18.3222 23.564 18.5555 23.7195 18.8666C24.1084 19.4887 24.7305 19.8776 25.5859 20.1109V20.5775C25.5082 20.4997 25.4304 20.422 25.3526 20.2664C25.1971 20.0331 24.9638 19.9553 24.6527 19.9553C24.4972 19.9553 24.3417 20.0331 24.2639 20.0331C24.2639 20.0331 24.2639 20.0331 24.1861 20.0331L23.4862 20.4997C23.2529 20.6553 23.0974 20.8886 23.0974 21.1996C23.0974 21.3552 23.1751 21.5107 23.2529 21.6663C23.4862 21.9773 23.7195 22.2884 24.1084 22.5217C24.575 22.9106 25.0415 23.1439 25.5859 23.2994V23.6105C25.5859 24.0771 25.9748 24.4659 26.4414 24.4659H27.1413C27.6079 24.4659 27.9968 24.0771 27.9968 23.6105V23.2994C28.4634 23.1439 28.8522 22.9883 29.2411 22.755C30.0188 22.2106 30.4076 21.433 30.4076 20.4997C30.4076 19.8776 30.2521 19.3332 29.941 18.9443C29.4744 18.4 28.8523 18.0111 27.9968 17.7778V17.7C28.0746 17.7 28.2301 17.7778 28.3078 17.7778C28.5411 17.7778 28.6967 17.7 28.7745 17.6223L29.5522 17.0779C29.7855 16.9224 29.941 16.6891 29.941 16.4557C29.941 16.2224 29.8633 16.0669 29.7077 15.9114C29.2411 15.367 28.6189 14.9781 27.9968 14.7448V14.356C27.9968 13.8894 27.6079 13.5005 27.1413 13.5005H26.4414C25.9748 13.5005 25.5859 13.8894 25.5859 14.356V14.7448C25.3526 14.8226 25.1193 14.9004 24.886 14.9781C24.0306 15.367 23.5639 15.9891 23.4084 16.5335C23.2529 15.8336 22.7863 15.2114 22.0863 14.8226C21.7753 14.6671 21.3864 14.5893 20.9976 14.5893H20.531C21.9308 12.5673 24.1083 11.323 26.5192 11.323C26.5969 11.323 26.7525 11.323 26.8303 11.323L32.5074 15.2892L33.1295 15.7558C33.6739 16.8446 33.9072 18.0111 33.9072 19.2554C33.9072 23.5327 30.5631 27.1101 26.5192 27.1101ZM29.3189 16.2224C29.3966 16.3002 29.3966 16.378 29.3966 16.4557C29.3966 16.5335 29.3188 16.6891 29.2411 16.7668L28.4634 17.3112C28.4634 17.3112 28.3079 17.389 28.2301 17.389C28.0746 17.389 27.9968 17.3112 27.919 17.2334C27.7635 17.0779 27.6079 17.0001 27.4524 16.9224V18.3222C28.3856 18.4777 29.0855 18.7888 29.4744 19.3332C29.7077 19.6443 29.8632 20.1109 29.8632 20.5775C29.8632 21.3552 29.5522 21.9773 28.8522 22.4439C28.4634 22.755 27.9968 22.9106 27.3747 22.9883V23.6883C27.3747 23.9216 27.2191 24.0771 26.9858 24.0771H26.2859C26.0526 24.0771 25.897 23.9216 25.897 23.6883V22.9883C25.2749 22.9106 24.7305 22.5995 24.1861 22.2106C23.875 21.9773 23.6417 21.6663 23.4084 21.433C23.3306 21.3552 23.3307 21.2774 23.3307 21.1996C23.3307 21.0441 23.4084 20.9663 23.4862 20.8886L24.1861 20.422C24.1861 20.422 24.3416 20.3442 24.4194 20.3442C24.5749 20.3442 24.6527 20.422 24.7305 20.4997C25.0416 20.8886 25.4304 21.1996 25.8193 21.3552V19.6443C24.886 19.4887 24.2639 19.0999 23.8751 18.5555C23.6417 18.2444 23.4862 17.8556 23.4862 17.389C23.4862 16.4557 23.9528 15.8336 24.886 15.367C25.1971 15.2114 25.5082 15.1337 25.8193 15.0559V14.2782C25.8193 14.0449 25.9748 13.8894 26.2081 13.8894H26.908C27.1413 13.8894 27.2969 14.0449 27.2969 14.2782V15.0559C28.2301 15.2892 28.8523 15.6003 29.3189 16.2224ZM19.2867 14.8226V14.9004H15.5538C14.8539 14.7448 14.3872 14.1227 14.3872 13.345C14.3872 12.8006 14.6205 12.2562 15.0871 12.0229C15.3204 11.9452 15.7871 11.7896 16.487 11.6341L17.0314 11.4785C17.6535 11.323 18.3534 11.1675 18.9756 10.9342H19.1311C21.9308 10.1565 23.6417 9.68985 24.1084 9.53432C24.2639 9.53432 24.4194 9.53432 24.4972 9.53432L25.8193 10.3898C23.0196 10.6231 20.6087 12.2562 19.2867 14.8226ZM36.1625 11.7118L36.2403 11.7896C36.3958 11.8674 36.4736 11.9451 36.6291 12.1007C36.9402 12.4118 37.0958 12.8784 37.0958 13.345C37.0958 14.2782 36.4736 14.9781 35.6181 15.0559H35.5404C35.3848 15.0559 35.307 15.1337 35.0737 15.0559C34.996 15.0559 34.9182 15.0559 34.9182 14.9781C34.8404 14.9781 34.7627 14.9004 34.6849 14.9004C34.6071 14.9004 34.6071 14.8226 34.5294 14.8226L33.1295 13.7338L25.1193 8.13448C25.0416 8.05671 24.9638 8.05671 24.886 8.05671C24.575 7.97894 24.2639 7.97894 23.8751 7.97894C23.7973 7.97894 23.7973 7.97894 23.7195 7.97894C23.2529 8.05671 20.6865 8.83439 18.5867 9.37878L18.4312 9.45655C17.8091 9.68985 17.1869 9.84539 16.5648 10.0009L16.0204 10.1565C15.2427 10.3898 14.6983 10.5453 14.5428 10.5453C14.465 10.5453 14.465 10.6231 14.3872 10.6231C13.454 11.1675 12.9096 12.1785 12.9096 13.2672C12.9096 14.7448 13.9206 15.9891 15.3205 16.2224C15.3982 16.2224 15.3982 16.2224 15.476 16.2224H20.6088C20.9976 16.2224 21.3086 16.6113 21.3086 17.0779C21.3086 17.5445 20.9976 17.9334 20.6088 17.9334H15.1649C14.465 17.9334 13.6095 17.9334 12.5208 17.9334C10.3432 17.9334 8.86564 17.0779 7.62134 16.0669C7.31026 15.8336 6.92143 15.5225 6.61035 15.2892C5.13275 14.1227 3.65512 12.9561 1.63313 12.7228V7.59009V6.8124V6.73463C2.41082 6.65687 3.34405 6.42356 4.51059 6.11248H4.58836L4.82166 6.03472C8.63233 5.02372 16.2537 3.00173 22.0086 1.36858H22.0863C22.3974 1.29081 22.7085 1.29081 23.0974 1.44635H23.1751L35.6181 11.323L36.1625 11.7118Z" fill="#282828"/>
</svg>
