<svg width="27" height="44" viewBox="0 0 27 44" fill="none" xmlns="http://www.w3.org/2000/svg">
<path d="M5.20929 38.1997C4.12052 37.7331 3.2651 37.2665 2.72072 36.9554C2.40965 36.7999 2.17632 36.6443 2.02078 36.4888C1.94301 36.411 1.86524 36.411 1.86524 36.3332C1.39862 35.9444 0.698731 36.0999 0.387656 36.4888C-0.00118881 36.9554 0.0765421 37.5775 0.543155 37.9664C4.58714 41.3104 8.24228 43.1769 11.8196 43.7213C12.5196 43.7991 13.2973 43.8768 13.9972 43.8768C15.0082 43.8768 16.0192 43.7991 17.108 43.5657C18.5078 43.2547 19.9076 42.7881 21.3853 42.0881L22.2407 43.3324C22.474 43.6435 22.8628 43.7991 23.2517 43.7991C23.6405 43.7213 23.9516 43.488 24.1072 43.0991L26.4402 37.1887C26.5958 36.8776 26.518 36.4888 26.3624 36.2555C26.2069 35.9444 25.8958 35.7889 25.5847 35.7111L19.2077 35.0112C18.8188 34.9334 18.43 35.1667 18.1967 35.4778C17.9634 35.7889 17.9634 36.2555 18.1967 36.6443L18.8966 37.7331C17.1857 38.7441 15.3192 39.3662 13.375 39.5995C10.031 39.9106 7.07574 38.9774 5.20929 38.1997ZM20.1409 38.5885C20.452 38.3552 20.5298 37.9664 20.3742 37.6553L19.6743 36.5665L24.8849 37.1887L22.9406 42.0881L22.0851 40.9216C21.8518 40.6105 21.463 40.5328 21.1519 40.6883C19.5188 41.466 18.0412 42.0104 16.6413 42.3214C15.0082 42.6325 13.4528 42.7103 11.8974 42.477C9.79768 42.1659 7.62015 41.3104 5.28709 39.9106C7.30908 40.6883 10.1865 41.466 13.2973 41.1549C15.7859 40.7661 18.0412 39.9106 20.1409 38.5885Z" fill="#282828"/>
<path d="M23.8736 6.9365C24.1847 7.09204 24.418 7.24758 24.5736 7.40312C24.6513 7.48088 24.7291 7.48088 24.7291 7.55865C25.1957 7.9475 25.8956 7.79196 26.2067 7.40312C26.5955 6.9365 26.5178 6.31435 26.0512 5.92551C22.0072 2.58145 18.3521 0.714993 14.7747 0.170611C13.0638 -0.0626961 11.2751 -0.0626961 9.48637 0.326148C8.08653 0.637224 6.68669 1.10384 5.20908 1.80376L4.35365 0.481686C4.12034 0.170611 3.7315 -0.0626961 3.34266 0.0150728C2.95382 0.0928416 2.64271 0.326148 2.48717 0.714993L0.154108 6.62543C-0.00142982 6.9365 0.0763675 7.32535 0.231905 7.55865C0.387443 7.86973 0.698519 8.02527 1.00959 8.10303L7.38665 8.80295C7.46442 8.80295 7.46438 8.80295 7.54215 8.80295C7.931 8.80295 8.24208 8.64742 8.47539 8.33634C8.70869 8.02527 8.70869 7.55865 8.47539 7.16981L7.7755 6.15881C9.48641 5.14782 11.3528 4.52567 13.2971 4.29236C16.4856 3.98129 19.4408 4.91451 21.3073 5.6922C22.4738 6.15881 23.3292 6.62543 23.8736 6.9365ZM13.2193 2.89252C10.8085 3.12583 8.55318 3.98129 6.45342 5.30336C6.14234 5.53666 6.06458 5.92551 6.22012 6.23658L6.92001 7.32535L1.70949 6.7032L3.65371 1.80376L4.50919 2.97029C4.7425 3.28137 5.13135 3.35913 5.44243 3.2036C7.07558 2.42591 8.55318 1.88153 9.95302 1.57045C11.5862 1.25937 13.1415 1.18161 14.6969 1.41491C16.7967 1.72599 18.9742 2.58145 21.3073 3.98129C19.1297 3.28137 16.3301 2.58145 13.2193 2.89252Z" fill="#282828"/>
<path d="M13.4651 22.8209C15.0205 22.8209 16.4981 22.1987 17.6646 21.11C18.7534 20.0212 19.3755 18.5436 19.3755 16.9104C19.3755 13.6441 16.7314 11 13.4651 11C11.9097 11 10.4321 11.6222 9.26556 12.7109C8.1768 13.7997 7.55469 15.2773 7.55469 16.9104C7.55469 20.1767 10.1988 22.8209 13.4651 22.8209ZM10.4321 13.7997C11.2876 12.9442 12.3763 12.5554 13.5429 12.5554C15.9537 12.5554 17.8979 14.4996 17.8979 16.9104C17.8979 18.077 17.4313 19.1657 16.6536 20.0212C15.7982 20.8766 14.7094 21.2655 13.6207 21.2655C11.2098 21.2655 9.26556 19.3213 9.26556 16.9104C9.11003 15.7439 9.57664 14.6551 10.4321 13.7997Z" fill="#282828"/>
<path d="M21.0094 31.1425C21.0094 30.9092 21.1649 25.932 17.9764 23.0545C17.6653 22.8212 17.2765 22.7434 16.9654 22.9767C16.9654 22.9767 13.4658 25.6209 10.1995 22.9767C9.88842 22.7434 9.49958 22.7434 9.1885 22.9767C9.03297 23.0545 6 25.7764 6 31.0647C6 31.298 6.07776 31.4535 6.2333 31.6091C6.38883 31.7646 6.54438 31.8424 6.77769 31.8424H20.1539C20.6205 31.8424 20.9316 31.5313 21.0094 31.1425ZM7.63313 30.287C7.86643 27.3318 9.18852 25.3876 9.88844 24.6099C12.6881 26.4763 15.7211 25.6209 17.432 24.6099C18.9874 26.3986 19.3762 29.0427 19.454 30.287H7.63313Z" fill="#282828"/>
</svg>
